<?xml version="1.0" standalone="no"?><!DOCTYPE svg PUBLIC "-//W3C//DTD SVG 1.1//EN" "http://www.w3.org/Graphics/SVG/1.1/DTD/svg11.dtd"><svg t="1679234456157" class="icon" viewBox="0 0 2035 1024" version="1.1" xmlns="http://www.w3.org/2000/svg" p-id="2783" width="127.1875" height="64" xmlns:xlink="http://www.w3.org/1999/xlink"><path d="M2636.69333326 197.65333333c3.09333333-0.10666667 6.08-0.10666667 9.17333332-0.10666666"  p-id="2784"></path><path d="M1064.53333325 736.85333333l-86.08-42.34666666L1046.29333325 556.8H841.06666658l136.85333335-272.32 85.75999999 43.09333333L996.79999992 460.8h203.73333334z"  p-id="2785"></path><path d="M1021.33333325 990.08l-22.08-13.44c-8.42666667-5.12-208.21333333-127.04-276.58666666-192.53333333-75.2-72-80.32-200.64-80.42666667-206.08V233.81333333h37.33333333c46.93333333 0 117.65333333-30.50666667 199.04-85.86666666 65.17333333-44.37333333 114.66666667-89.06666667 115.2-89.49333334l26.34666668-24 26.45333332 23.89333334c187.94666667 170.24 314.77333333 175.46666667 315.94666667 175.46666666l37.22666666 0.10666667V577.06666667c0 136.32-78.29333333 206.72-81.6 209.70666666l-1.70666666 1.49333334-295.14666667 201.81333333zM716.79999993 576.53333333c0.32 7.04 6.18666667 109.54666667 60.05333332 161.06666667 50.24 48.10666667 188.26666667 135.78666667 242.13333333 169.28l248.10666667-169.70666667c3.94666667-3.94666667 16.32-17.17333333 28.37333333-39.25333333 19.52-35.52 29.44-76.26666667 29.44-120.85333333V296.85333333c-18.13333333-3.62666667-42.45333333-10.02666667-71.89333333-21.44-75.73333333-29.33333333-154.13333333-78.4-233.28-146.24-22.08 18.34666667-56.32 45.54666667-96.42666667 72.85333334-79.25333333 53.86666667-148.48 86.08-206.50666665 96.10666666v278.4z"  p-id="2786"></path></svg>
